<svg xmlns="http://www.w3.org/2000/svg" width="130" height="19" viewBox="0 0 130 19" fill="none">
  <path fill="#0A0A0A" d="M41.03 10.85c-.18 1.58-.72 2.98-1.63 4.18q-1.365 1.77-3.6 2.76c-1.47.66-3.17.98-5.09.98-2.1 0-3.93-.39-5.5-1.18s-2.79-1.88-3.67-3.29c-.86-1.41-1.3-3.05-1.3-4.92s.43-3.51 1.3-4.92c.88-1.41 2.1-2.5 3.67-3.29s3.4-1.18 5.5-1.18c1.92 0 3.62.33 5.09.98 1.49.66 2.69 1.58 3.6 2.78.91 1.18 1.46 2.57 1.63 4.15h-4.99c-.16-.77-.47-1.42-.94-1.94-.46-.54-1.07-.96-1.82-1.25-.74-.29-1.59-.43-2.57-.43-1.12 0-2.09.21-2.9.62-.82.4-1.44.98-1.87 1.75-.43.75-.65 1.66-.65 2.71s.22 1.97.65 2.74a4.4 4.4 0 0 0 1.87 1.75c.82.4 1.78.6 2.9.6.98 0 1.83-.14 2.57-.41.75-.27 1.36-.68 1.82-1.22s.78-1.21.94-1.99h4.99ZM15.62 8.33c-1.02-.4-2.39-.68-4.1-.84l-3.58-.36c-1.02-.1-1.74-.27-2.14-.53-.38-.26-.58-.59-.58-1.01 0-.58.33-1.01.98-1.3.66-.3 1.54-.46 2.66-.46.83 0 1.54.09 2.14.26.59.16 1.06.4 1.39.72.35.3.56.67.62 1.1h5.04c-.06-1.18-.5-2.22-1.3-3.12-.78-.9-1.85-1.58-3.19-2.06-1.34-.5-2.88-.74-4.61-.74s-3.3.22-4.63.67c-1.31.43-2.34 1.08-3.07 1.94C.55 3.48.19 4.54.19 5.78c0 1.54.56 2.76 1.68 3.67q1.68 1.35 5.4 1.68l3.36.31c1.14.11 1.9.3 2.3.55q.6.39.6 1.08c0 .61-.35 1.07-1.06 1.39-.7.3-1.66.46-2.88.46-.88 0-1.65-.1-2.3-.29-.64-.21-1.15-.5-1.54-.86-.38-.37-.62-.8-.7-1.3H0c.05 1.25.47 2.35 1.27 3.31.8.94 1.9 1.68 3.31 2.21 1.42.51 3.06.77 4.92.77s3.39-.26 4.75-.77c1.36-.53 2.42-1.26 3.17-2.18.75-.94 1.13-2.05 1.13-3.31 0-1.02-.23-1.88-.7-2.57-.46-.69-1.21-1.22-2.23-1.61ZM70.45.38h-4.97v18h16.2v-4.42H70.45zm-14.86 0 8.18 18h-5.3l-1.49-3.46h-9.32l-1.5 3.46h-5.3l8.18-18zm-.34 10.54-2.92-6.76-2.93 6.76zm45.93-4.32c0 1.23-.29 2.32-.86 3.26q-.87 1.395-2.52 2.16c-1.09.51-2.38.77-3.89.77h-5.14v5.59H83.8v-18h10.1c1.5 0 2.8.26 3.89.77 1.1.51 1.94 1.24 2.52 2.18.58.93.86 2.02.86 3.26Zm-5.04 0c0-.7-.22-1.25-.67-1.63-.45-.4-1.07-.6-1.87-.6h-4.82v4.44h4.82c.8 0 1.42-.19 1.87-.58.45-.4.67-.94.67-1.63"/>
  <path fill="#0A0A0A" d="m121.15 18.38-7.59-9.35 7.09-8.65h-6.12l-3.99 5.23-4.05-5.23h-6.22l7.13 8.65-7.65 9.35h6.04l4.63-5.95 4.61 5.95z"/>
</svg>
